# xmcd
#
# Track frame offsets:
#	150
#	18203
#	34345
#	53820
#	75153
#	96020
#	120483
#	144608
#	167208
#	185170
#	204720
#	222432
#	242057
#	258582
#	274020
#	291932
#	312645
#
# Disc length: 4385 seconds
#
# Revision: 2
# Processed by: cddbd v1.5.1PL0 Copyright (c) Steve Scherf et al.
# Submitted via: MusicWizard 7.1.1b
#
DISCID=00111f11
DTITLE=Various Artist - Best Of Body Soul  CD 2
DYEAR=2003
DGENRE=Soul
TTITLE0=Dennis Edwards - Don't Look Any Further
TTITLE1=Diana King - I Say A Little Prayer
TTITLE2=The Commodores - Nightshift
TTITLE3=Babyface - Rock Bottom
TTITLE4=Mica Paris - My One Temptation
TTITLE5=Tq - Bye Bye Baby
TTITLE6=The Pasadenas - Riding On A Train
TTITLE7=Luther Vandross - Heaven Knows
TTITLE8=Kool and The Gang - Cherish
TTITLE9=Tina Arena - Chains
TTITLE10=Joe Public - Live And Learn
TTITLE11=Dan Hartman - Keep The Fire Burning
TTITLE12=Mn8 - I've Got A Little Something
TTITLE13=Xscape - Just Kickin' It
TTITLE14=Ruff Endz - No More
TTITLE15=Regina Belle - You Make Me Feel Brand New
TTITLE16=Vanessa Williams - Save The Best For Last
EXTD=
EXTT0=
EXTT1=
EXTT2=
EXTT3=
EXTT4=
EXTT5=
EXTT6=
EXTT7=
EXTT8=
EXTT9=
EXTT10=
EXTT11=
EXTT12=
EXTT13=
EXTT14=
EXTT15=
EXTT16=
PLAYORDER=
